<svg height="711.7711" viewBox="0 0 796 711.7711" width="796" xmlns="http://www.w3.org/2000/svg"><path d="m299.079 648.56106-8.89026-35.06486a455.3229 455.3229 0 0 0 -48.30717-17.33113l-1.12257 16.29606-4.55175-17.95328c-20.35782-5.81323-34.20725-8.37385-34.20725-8.37385s18.70738 71.13842 57.94476 125.52465l45.72014 8.031-35.51871 5.12114a184.211 184.211 0 0 0 15.888 16.83723c57.07929 52.9818 120.65488 77.29013 142.00008 54.29413s-7.623-84.58813-64.70233-137.56993c-17.69515-16.42488-39.924-29.6057-62.175-39.97928z" fill="#e6e6e6" transform="translate(-202 -94.11445)"/><path d="m383.63224 610.48142 10.51462-34.61248a455.32041 455.32041 0 0 0 -32.39463-39.80627l-9.3844 13.36992 5.38357-17.72159c-14.42234-15.49938-24.95448-24.85018-24.95448-24.85018s-20.75719 70.56756-15.28054 137.40647l34.98725 30.50771-33.05275-13.97575a184.2128 184.2128 0 0 0 4.89768 22.626c21.47608 74.85917 63.33463 128.5305 93.49375 119.87826s37.19806-76.3516 15.722-151.21077c-6.6578-23.20708-18.87351-45.98058-32.55921-66.36238z" fill="#e6e6e6" transform="translate(-202 -94.11445)"/><path d="m884.17981 752.05584 6.61544-7.14478a122.56157 122.56157 0 0 0 -3.1639-13.4473l-3.84424 2.134 3.38713-3.65813c-1.66992-5.44865-3.12076-8.95111-3.12076-8.95111s-13.32284 14.64664-19.85509 31.47479l4.88491 11.50059-6.36018-7.27012a49.58586 49.58586 0 0 0 -1.47426 6.05443c-3.60112 20.65124.22421 38.56849 8.54414 40.0193s17.98384-14.1142 21.585-34.76544a65.28076 65.28076 0 0 0 -.08151-19.8969z" fill="#e6e6e6" transform="translate(-202 -94.11445)"/><path d="m982.04942 766.18571 9.35626-2.69673a122.55844 122.55844 0 0 0 4.24249-13.14691l-4.39392-.16027 4.79042-1.38071c1.38689-5.52747 1.95533-9.27568 1.95533-9.27568s-18.97582 5.65159-33.26621 16.68071l-1.763 12.37-1.68666-9.51114a49.58626 49.58626 0 0 0 -4.39158 4.42083c-13.75737 15.817-19.74417 33.13225-13.37186 38.67479s22.69062-2.78652 36.448-18.60348a65.281 65.281 0 0 0 10.215-17.07476z" fill="#e6e6e6" transform="translate(-202 -94.11445)"/><path d="m720.49687 142.406v612.16357a48.30136 48.30136 0 0 1 -48.29157 48.29169h-237.89357a48.30567 48.30567 0 0 1 -48.31173-48.29169v-612.16357a48.30564 48.30564 0 0 1 48.31173-48.29157h28.85807a22.96636 22.96636 0 0 0 21.246 31.61713h135.6313a22.96611 22.96611 0 0 0 21.2459-31.61711h30.9123a48.30134 48.30134 0 0 1 48.29157 48.29155z" fill="#3f3d56" transform="translate(-202 -94.11445)"/><path d="m519.72822 347.655a23.87666 23.87666 0 0 1 11.9461-20.68789 23.89222 23.89222 0 1 0 0 41.37573 23.87652 23.87652 0 0 1 -11.9461-20.68784z" fill="#fff" transform="translate(-202 -94.11445)"/><path d="m549.76412 347.655a23.87668 23.87668 0 0 1 11.94609-20.68789 23.89222 23.89222 0 1 0 0 41.37573 23.87653 23.87653 0 0 1 -11.94609-20.68784z" fill="#fff" transform="translate(-202 -94.11445)"/><circle cx="377.11738" cy="253.54057" fill="#004b87" r="23.89219"/><path d="m244.57422 409.90405h213.56445v2h-213.56445z" fill="#fff"/><circle cx="251.31877" cy="390.67147" fill="#004b87" r="6.74414"/><path d="m244.57422 477.34545h213.56445v2h-213.56445z" fill="#fff"/><circle cx="251.31877" cy="458.1129" fill="#004b87" r="6.74414"/><path d="m619.0459 422.27875h-139.24707a5.00588 5.00588 0 0 1 -5-5v-139.24707a5.00589 5.00589 0 0 1 5-5h139.24707a5.00589 5.00589 0 0 1 5 5v139.24707a5.00589 5.00589 0 0 1 -5 5zm-139.24707-147.24707a3.00328 3.00328 0 0 0 -3 3v139.24707a3.00328 3.00328 0 0 0 3 3h139.24707a3.00328 3.00328 0 0 0 3-3v-139.24707a3.00328 3.00328 0 0 0 -3-3z" fill="#fff" transform="translate(-202 -94.11445)"/><rect fill="#004b87" height="31.47267" rx="4" width="75.30959" x="382.82955" y="522.18225"/><path d="m.79492 707.76733h795.20508v2h-795.20508z" fill="#3f3d56"/><path d="m846.52086 419.196s-2.76836 17.533 0 20.30134-17.533 25.838-17.533 25.838l-16.61018-23.06969s7.38231-11.99624 4.61394-22.14691z" fill="#ffb8b8" transform="translate(-202 -94.11445)"/><path d="m583.621 457.039-12.001 128.267 4.61 99.661 22.147-6.459.927-89.51 25.841-77.513 15.684 83.974-1.849 84.896 27.684.924 1.849-94.124 3.243-131.46z" fill="#2f2e41"/><path d="m841.90692 771.70088v20.30133s-4.61392 14.76461 10.15067 13.84179 13.84181-7.3823 13.84181-7.3823l-5.53672-24.91527z" fill="#2f2e41" transform="translate(-202 -94.11445)"/><path d="m799.45869 771.70088v20.30133s4.61393 14.76461-10.15067 13.84182-13.84182-7.3823-13.84182-7.3823l5.53673-24.91527z" fill="#2f2e41" transform="translate(-202 -94.11445)"/><circle cx="628.83347" cy="314.00805" fill="#ffb8b8" r="21.22412"/><g transform="translate(-202 -94.11445)"><path d="m829.91068 455.18468 1.84558-9.22788h4.61394l8.9225-12.83445 7.68768 7.29772 1.84557 43.371h-49.83054l4.61394-46.13939 6.71934-4.52936s-1.18261 15.60281 11.73642 15.60281z" fill="#575a89"/><path d="m810.53214 445.034s7.64172 9.67444 19.04686 8.98977 22.47859-9.91256 22.47859-9.91256l15.68741 119.96242s-17.533 1.84558-23.06969-7.3823l-42.44824-.92279.92279-111.65732z" fill="#d0cde1"/><path d="m816.762 431.5308-40.373 19.96273 10.15067 57.21284s3.69115 21.22412 0 29.52921-7.38231 63.67235-7.38231 63.67235 41.52545 4.61394 35.98873-60.904 1.61591-109.47313 1.61591-109.47313z" fill="#2f2e41"/><path d="m792.07638 569.61036 5.53673 5.53673s16.61018 28.60642 23.99248 18.45575-12.919-27.68363-12.919-27.68363l-9.22787-7.3823z" fill="#ffb8b8"/><path d="m845.31375 431.5308 39.9642 19.96273-13.84182 68.28629s.92279 22.14691 5.53673 34.14315 2.76836 47.06217 2.76836 47.06217-5.53673 21.22412-17.533-31.37478-16.89447-138.07956-16.89447-138.07956z" fill="#2f2e41"/><path d="m876.05007 536.39h-8.30507s-27.68363-3.69115-25.83806 7.3823 27.68364 8.30509 27.68364 8.30509l10.15066-.92278z" fill="#ffb8b8"/><path d="m781.92572 448.72516-6.45952 2.76837s-6.45951 13.84181-7.3823 18.45575-11.99624 59.98121-9.2279 66.44072 30.452 40.60266 30.452 40.60266l15.68739-16.61018-23.06967-31.37478 6.45951-39.67988z" fill="#2f2e41"/><path d="m871.43613 449.648 12.20966 1.03029 2.55495.81529s25.838 70.13187 20.30133 81.20532-29.52921 31.37478-29.52921 31.37478l-6.45952-28.60642 11.99624-11.07345-11.99624-36.91151z" fill="#2f2e41"/><path d="m848.79006 391.757s5.55251-10.41917-6.663-11.36636c0 0-11.105-6.63038-19.989.94719 0 0-7.77351-1.89439-9.99452 3.78879 0 0-1.1105-2.84159 2.221-4.736 0 0-7.77352-1.8944-7.77352 7.57757 0 0-3.3315 9.472 0 17.99674s4.442 9.472 4.442 9.472-5.47461-17.87294 7.85141-18.82013 28.2399-9.12218 29.3504 1.297 3.33151 13.26075 3.33151 13.26075 9.9945-15.15517-2.77628-19.41755z" fill="#2f2e41"/></g></svg>